<?xml version="1.0" encoding="utf-8"?>
<!-- Svg Vector Icons : http://www.onlinewebfonts.com/icon -->
<!DOCTYPE svg PUBLIC "-//W3C//DTD SVG 1.1//EN" "http://www.w3.org/Graphics/SVG/1.1/DTD/svg11.dtd">
<svg version="1.1" xmlns="http://www.w3.org/2000/svg" xmlns:xlink="http://www.w3.org/1999/xlink" x="0px" y="0px" viewBox="0 0 256 256" enable-background="new 0 0 256 256" xml:space="preserve">
<metadata> Svg Vector Icons : http://www.onlinewebfonts.com/icon </metadata>
<g><g><path fill="#000000" d="M245.9,219.1V8.6H10v207.5l0,0C10,228,13,237,20.5,243c4.5,4.5,9,4.5,11.9,4.5c1.5,0,1.5,0,1.5,0h180.7c10.5,0,17.9-3,23.9-9C247.4,229.5,245.9,219.1,245.9,219.1z M232.5,231c-3,4.5-9,6-16.4,6H33.9l0,0c0,0-4.5,0-7.5-3c-4.5-3-6-10.5-6-19.4V17.5h218v201.6C236.9,219.1,236.9,226.5,232.5,231z"/><path fill="#000000" d="M119,111.6c7.5,0,14.9-6,14.9-14.9V50.4c0-7.5-6-14.9-14.9-14.9H51.8c-7.5,0-14.9,6-14.9,14.9v47.8c0,7.5,6,14.9,14.9,14.9H119V111.6z M47.3,96.6V50.4c0-3,1.5-4.5,4.5-4.5h65.7c3,0,4.5,1.5,4.5,4.5v47.8c0,3-1.5,4.5-4.5,4.5H51.8C50.3,102.6,47.3,99.6,47.3,96.6z"/><path fill="#000000" d="M42.8,129.5h170.2v9H42.8V129.5z"/><path fill="#000000" d="M42.8,157.9h170.2v9H42.8V157.9z"/><path fill="#000000" d="M42.8,190.7h170.2v9H42.8V190.7z"/><path fill="#000000" d="M151.8,38.4H219v11.9h-67.2V38.4z"/><path fill="#000000" d="M151.8,68.3H219v11.9h-67.2V68.3z"/><path fill="#000000" d="M151.8,98.1H219v11.9h-67.2V98.1z"/></g></g>
</svg>