<?xml version="1.0" encoding="utf-8"?>
<!-- Generator: Adobe Illustrator 24.1.1, SVG Export Plug-In . SVG Version: 6.00 Build 0)  -->
<svg version="1.1" id="Layer_1" xmlns="http://www.w3.org/2000/svg" xmlns:xlink="http://www.w3.org/1999/xlink" x="0px" y="0px"
	 viewBox="0 0 512 512" style="enable-background:new 0 0 512 512;" xml:space="preserve">
<style type="text/css">
	.st0{fill:#231F20;}
</style>
<g>
	<path class="st0" d="M179.2,230.4c56.6,0,102.4-45.8,102.4-102.4S235.8,25.6,179.2,25.6S76.8,71.4,76.8,128
		S122.7,230.4,179.2,230.4z M179.2,76.8c28.3,0,51.2,22.9,51.2,51.2s-22.9,51.2-51.2,51.2S128,156.3,128,128S150.9,76.8,179.2,76.8z
		"/>
	<path class="st0" d="M384,281.6c42.4,0,76.8-34.4,76.8-76.8S426.4,128,384,128s-76.8,34.4-76.8,76.8S341.6,281.6,384,281.6z
		 M384,179.2c14.1,0,25.6,11.5,25.6,25.6s-11.5,25.6-25.6,25.6s-25.6-11.5-25.6-25.6S369.9,179.2,384,179.2z"/>
	<path class="st0" d="M384,307.2c-28.4,0-55.9,9.5-78.3,26.9c-70.1-69.8-183.6-69.6-253.4,0.5C18.8,368.1,0.1,413.5,0,460.8
		c0,14.1,11.5,25.6,25.6,25.6s25.6-11.5,25.6-25.6c0-70.7,57.3-128,128-128s128,57.3,128,128c0,14.1,11.5,25.6,25.6,25.6
		c14.1,0,25.6-11.5,25.6-25.6c0.1-30-7.5-59.5-22-85.8c33.3-26.3,81.6-20.6,107.9,12.6c10.7,13.5,16.5,30.3,16.5,47.5
		c0,14.1,11.5,25.6,25.6,25.6c14.1,0,25.6-11.5,25.6-25.6C512,364.5,454.7,307.2,384,307.2z"/>
</g>
</svg>
